<svg xmlns="http://www.w3.org/2000/svg" width="12.913" height="14" viewBox="0 0 12.913 14">
  <path id="icons8-notification" d="M12.212,4.007A5.477,5.477,0,0,0,7.086,9.522v2.609l-.951,1.914,0,.011a1.272,1.272,0,0,0,1.137,1.791h3.051a2.154,2.154,0,0,0,4.308,0h3.05a1.273,1.273,0,0,0,1.137-1.791l0-.011-.951-1.914V9.385A5.394,5.394,0,0,0,12.212,4.007Zm.051,1.076a4.3,4.3,0,0,1,4.517,4.3v2.872a.539.539,0,0,0,.056.24l1,2.018a.167.167,0,0,1-.163.255H7.267a.167.167,0,0,1-.162-.255h0l1-2.017a.539.539,0,0,0,.056-.24V9.522A4.4,4.4,0,0,1,12.262,5.082Zm-.868,10.764h2.154a1.077,1.077,0,1,1-2.154,0Z" transform="translate(-6.015 -4.001)" fill="#ffffff"/>
</svg>
