<svg id="dashboard" xmlns="http://www.w3.org/2000/svg" width="15" height="15" viewBox="0 0 15 15">
  <path id="Path_93404" data-name="Path 93404" d="M5.781,0H1.094A1.1,1.1,0,0,0,0,1.094V3.906A1.1,1.1,0,0,0,1.094,5H5.781A1.1,1.1,0,0,0,6.875,3.906V1.094A1.1,1.1,0,0,0,5.781,0Zm0,0" fill="#ffffff"/>
  <path id="Path_93405" data-name="Path 93405" d="M5.781,213.332H1.094A1.1,1.1,0,0,0,0,214.426v6.563a1.1,1.1,0,0,0,1.094,1.094H5.781a1.1,1.1,0,0,0,1.094-1.094v-6.562A1.1,1.1,0,0,0,5.781,213.332Zm0,0" transform="translate(0 -207.082)" fill="#ffffff"/>
  <path id="Path_93406" data-name="Path 93406" d="M283.113,341.332h-4.687a1.1,1.1,0,0,0-1.094,1.094v2.813a1.1,1.1,0,0,0,1.094,1.094h4.688a1.1,1.1,0,0,0,1.094-1.094v-2.812A1.1,1.1,0,0,0,283.113,341.332Zm0,0" transform="translate(-269.207 -331.332)" fill="#ffffff"/>
  <path id="Path_93407" data-name="Path 93407" d="M283.113,0h-4.687a1.1,1.1,0,0,0-1.094,1.094V7.656a1.1,1.1,0,0,0,1.094,1.094h4.688a1.1,1.1,0,0,0,1.094-1.094V1.094A1.1,1.1,0,0,0,283.113,0Zm0,0" transform="translate(-269.207)" fill="#ffffff"/>
</svg>
